HIERARCHY
ROOT Hips
{
  OFFSET 186.036 92.597 978.733
  CHANNELS 6 Xposition Yposition Zposition Zrotation Xrotation Yrotation
  JOINT Spine
  {
    OFFSET 0 8 0
    CHANNELS 6 Xposition Yposition Zposition Zrotation Xrotation Yrotation
    JOINT Spine1
    {
      OFFSET 2.66023e-05 8 -0.00011063
      CHANNELS 6 Xposition Yposition Zposition Zrotation Xrotation Yrotation
      JOINT Spine2
      {
        OFFSET -1.33723e-05 8 1.57677e-05
        CHANNELS 6 Xposition Yposition Zposition Zrotation Xrotation Yrotation
        JOINT Spine3
        {
          OFFSET 0 8 0
          CHANNELS 6 Xposition Yposition Zposition Zrotation Xrotation Yrotation
          JOINT Neck
          {
            OFFSET 0 17 0
            CHANNELS 6 Xposition Yposition Zposition Zrotation Xrotation Yrotation
            JOINT Head
            {
              OFFSET 1.03326e-05 10.8 4.18444e-05
              CHANNELS 6 Xposition Yposition Zposition Zrotation Xrotation Yrotation
              End Site
              {
                OFFSET 0 20.25 0
              }
            }
          }
          JOINT LeftShoulder
          {
            OFFSET 5 17 0
            CHANNELS 6 Xposition Yposition Zposition Zrotation Xrotation Yrotation
            JOINT LeftShoulder2
            {
              OFFSET 6.45 0 0
              CHANNELS 6 Xposition Yposition Zposition Zrotation Xrotation Yrotation
              JOINT LeftArm
              {
                OFFSET 6.45003 0 0
                CHANNELS 6 Xposition Yposition Zposition Zrotation Xrotation Yrotation
                JOINT LeftForeArm
                {
                  OFFSET 1.56325e-05 -32.4 -1.99996
                  CHANNELS 6 Xposition Yposition Zposition Zrotation Xrotation Yrotation
                  JOINT LeftHand
                  {
                    OFFSET 1.03894e-05 -25.65 2.00001
                    CHANNELS 6 Xposition Yposition Zposition Zrotation Xrotation Yrotation
                    JOINT LeftHandThumb1
                    {
                      OFFSET -0.500038 -1.49992 2.64998
                      CHANNELS 6 Xposition Yposition Zposition Zrotation Xrotation Yrotation
                      JOINT LeftHandThumb2
                      {
                        OFFSET -1.8736e-05 -3.80008 3.69994
                        CHANNELS 6 Xposition Yposition Zposition Zrotation Xrotation Yrotation
                        JOINT LeftHandThumb3
                        {
                          OFFSET 0 -2.99997 2.69995
                          CHANNELS 6 Xposition Yposition Zposition Zrotation Xrotation Yrotation
                          End Site
                          {
                            OFFSET 1.59331e-05 -2.29998 1.79996
                          }
                        }
                      }
                    }
                    JOINT LeftHandIndex
                    {
                      OFFSET 2.45814e-05 -1.90001 1.59996
                      CHANNELS 6 Xposition Yposition Zposition Zrotation Xrotation Yrotation
                      JOINT LeftHandIndex1
                      {
                        OFFSET 8.74916e-05 -8.29998 1.90001
                        CHANNELS 6 Xposition Yposition Zposition Zrotation Xrotation Yrotation
                        JOINT LeftHandIndex2
                        {
                          OFFSET 0 -4.49999 1.19232e-05
                          CHANNELS 6 Xposition Yposition Zposition Zrotation Xrotation Yrotation
                          JOINT LeftHandIndex3
                          {
                            OFFSET 0 -3.39996 0
                            CHANNELS 6 Xposition Yposition Zposition Zrotation Xrotation Yrotation
                            End Site
                            {
                              OFFSET 0 -2.59998 0
                            }
                          }
                        }
                      }
                    }
                    JOINT LeftHandMiddle
                    {
                      OFFSET -0.249955 -2.20001 0.39997
                      CHANNELS 6 Xposition Yposition Zposition Zrotation Xrotation Yrotation
                      JOINT LeftHandMiddle1
                      {
                        OFFSET -7.50269e-05 -8.29994 0.999993
                        CHANNELS 6 Xposition Yposition Zposition Zrotation Xrotation Yrotation
                        JOINT LeftHandMiddle2
                        {
                          OFFSET 0 -4.65 1.13598e-05
                          CHANNELS 6 Xposition Yposition Zposition Zrotation Xrotation Yrotation
                          JOINT LeftHandMiddle3
                          {
                            OFFSET 0 -3.30252 2.35123e-05
                            CHANNELS 6 Xposition Yposition Zposition Zrotation Xrotation Yrotation
                            End Site
                            {
                              OFFSET 0 -2.69949 0
                            }
                          }
                        }
                      }
                    }
                    JOINT LeftHandRing
                    {
                      OFFSET -0.500045 -2.14994 -0.800044
                      CHANNELS 6 Xposition Yposition Zposition Zrotation Xrotation Yrotation
                      JOINT LeftHandRing1
                      {
                        OFFSET 0.000113457 -7.75 -0.199956
                        CHANNELS 6 Xposition Yposition Zposition Zrotation Xrotation Yrotation
                        JOINT LeftHandRing2
                        {
                          OFFSET 0 -3.79994 0
                          CHANNELS 6 Xposition Yposition Zposition Zrotation Xrotation Yrotation
                          JOINT LeftHandRing3
                          {
                            OFFSET -3.01068e-05 -3.39991 0
                            CHANNELS 6 Xposition Yposition Zposition Zrotation Xrotation Yrotation
                            End Site
                            {
                              OFFSET 1.5359e-05 -2.60011 -3.53533e-05
                            }
                          }
                        }
                      }
                    }
                    JOINT LeftHandPinky
                    {
                      OFFSET -0.750021 -1.75 -1.85001
                      CHANNELS 6 Xposition Yposition Zposition Zrotation Xrotation Yrotation
                      JOINT LeftHandPinky1
                      {
                        OFFSET -1.63724e-05 -7.15 -1.00002
                        CHANNELS 6 Xposition Yposition Zposition Zrotation Xrotation Yrotation
                        JOINT LeftHandPinky2
                        {
                          OFFSET 0 -2.99992 0
                          CHANNELS 6 Xposition Yposition Zposition Zrotation Xrotation Yrotation
                          JOINT LeftHandPinky3
                          {
                            OFFSET 0 -2.34991 2.68757e-05
                            CHANNELS 6 Xposition Yposition Zposition Zrotation Xrotation Yrotation
                            End Site
                            {
                              OFFSET 1.60749e-05 -2.10004 -3.69663e-05
                            }
                          }
                        }
                      }
                    }
                  }
                }
              }
            }
          }
          JOINT RightShoulder
          {
            OFFSET -5 17 1.30576e-05
            CHANNELS 6 Xposition Yposition Zposition Zrotation Xrotation Yrotation
            JOINT RightShoulder2
            {
              OFFSET -6.45 0 0
              CHANNELS 6 Xposition Yposition Zposition Zrotation Xrotation Yrotation
              JOINT RightArm
              {
                OFFSET -6.44998 0 -1.90108e-05
                CHANNELS 6 Xposition Yposition Zposition Zrotation Xrotation Yrotation
                JOINT RightForeArm
                {
                  OFFSET -6.23992e-05 -32.4 -2.00008
                  CHANNELS 6 Xposition Yposition Zposition Zrotation Xrotation Yrotation
                  JOINT RightHand
                  {
                    OFFSET 1.3203e-05 -25.65 2
                    CHANNELS 6 Xposition Yposition Zposition Zrotation Xrotation Yrotation
                    JOINT RightHandThumb1
                    {
                      OFFSET 0.499989 -1.49998 2.64998
                      CHANNELS 6 Xposition Yposition Zposition Zrotation Xrotation Yrotation
                      JOINT RightHandThumb2
                      {
                        OFFSET 7.30059e-05 -3.80006 3.69999
                        CHANNELS 6 Xposition Yposition Zposition Zrotation Xrotation Yrotation
                        JOINT RightHandThumb3
                        {
                          OFFSET -0.00083595 -3.00002 2.69999
                          CHANNELS 6 Xposition Yposition Zposition Zrotation Xrotation Yrotation
                          End Site
                          {
                            OFFSET -7.08887e-05 -2.3 1.8
                          }
                        }
                      }
                    }
                    JOINT RightHandIndex
                    {
                      OFFSET -5.01233e-05 -1.90001 1.6
                      CHANNELS 6 Xposition Yposition Zposition Zrotation Xrotation Yrotation
                      JOINT RightHandIndex1
                      {
                        OFFSET 8.9938e-05 -8.30007 1.90002
                        CHANNELS 6 Xposition Yposition Zposition Zrotation Xrotation Yrotation
                        JOINT RightHandIndex2
                        {
                          OFFSET 0.00012456 -4.5001 6.00172e-05
                          CHANNELS 6 Xposition Yposition Zposition Zrotation Xrotation Yrotation
                          JOINT RightHandIndex3
                          {
                            OFFSET 9.73328e-05 -3.4 -0.00125693
                            CHANNELS 6 Xposition Yposition Zposition Zrotation Xrotation Yrotation
                            End Site
                            {
                              OFFSET -0.00170126 -2.60001 0.00109926
                            }
                          }
                        }
                      }
                    }
                    JOINT RightHandMiddle
                    {
                      OFFSET 0.24997 -2.19998 0.400026
                      CHANNELS 6 Xposition Yposition Zposition Zrotation Xrotation Yrotation
                      JOINT RightHandMiddle1
                      {
                        OFFSET 2.39079e-05 -8.29992 0.999994
                        CHANNELS 6 Xposition Yposition Zposition Zrotation Xrotation Yrotation
                        JOINT RightHandMiddle2
                        {
                          OFFSET 0 -4.65001 5.73787e-05
                          CHANNELS 6 Xposition Yposition Zposition Zrotation Xrotation Yrotation
                          JOINT RightHandMiddle3
                          {
                            OFFSET -0.00103269 -3.3 0
                            CHANNELS 6 Xposition Yposition Zposition Zrotation Xrotation Yrotation
                            End Site
                            {
                              OFFSET -0.000128564 -2.70004 5.23797e-05
                            }
                          }
                        }
                      }
                    }
                    JOINT RightHandRing
                    {
                      OFFSET 0.499988 -2.15009 -0.799981
                      CHANNELS 6 Xposition Yposition Zposition Zrotation Xrotation Yrotation
                      JOINT RightHandRing1
                      {
                        OFFSET -0.000362756 -7.75008 -0.200028
                        CHANNELS 6 Xposition Yposition Zposition Zrotation Xrotation Yrotation
                        JOINT RightHandRing2
                        {
                          OFFSET 0.00160483 -3.79999 2.77719e-05
                          CHANNELS 6 Xposition Yposition Zposition Zrotation Xrotation Yrotation
                          JOINT RightHandRing3
                          {
                            OFFSET -0.00349345 -3.39995 4.69157e-05
                            CHANNELS 6 Xposition Yposition Zposition Zrotation Xrotation Yrotation
                            End Site
                            {
                              OFFSET 8.12602e-05 -2.59998 1.9369e-05
                            }
                          }
                        }
                      }
                    }
                    JOINT RightHandPinky
                    {
                      OFFSET 0.750012 -1.74999 -1.8501
                      CHANNELS 6 Xposition Yposition Zposition Zrotation Xrotation Yrotation
                      JOINT RightHandPinky1
                      {
                        OFFSET -1.83062e-05 -7.15 -1.00045
                        CHANNELS 6 Xposition Yposition Zposition Zrotation Xrotation Yrotation
                        JOINT RightHandPinky2
                        {
                          OFFSET -9.63649e-05 -3 6.81171e-05
                          CHANNELS 6 Xposition Yposition Zposition Zrotation Xrotation Yrotation
                          JOINT RightHandPinky3
                          {
                            OFFSET -0.00054614 -2.35003 6.87245e-05
                            CHANNELS 6 Xposition Yposition Zposition Zrotation Xrotation Yrotation
                            End Site
                            {
                              OFFSET -0.000129948 -2.09999 8.83567e-05
                            }
                          }
                        }
                      }
                    }
                  }
                }
              }
            }
          }
        }
      }
    }
  }
  JOINT LeftUpLeg
  {
    OFFSET 8.00003 0 -1.10273e-05
    CHANNELS 6 Xposition Yposition Zposition Zrotation Xrotation Yrotation
    JOINT LeftLeg
    {
      OFFSET 0 -45 -1
      CHANNELS 6 Xposition Yposition Zposition Zrotation Xrotation Yrotation
      JOINT LeftFoot
      {
        OFFSET 3.37663e-05 -41 -1.99999
        CHANNELS 6 Xposition Yposition Zposition Zrotation Xrotation Yrotation
        JOINT LeftToeBase
        {
          OFFSET 0 -7.5 12.5
          CHANNELS 6 Xposition Yposition Zposition Zrotation Xrotation Yrotation
          JOINT LeftFootToe
          {
            OFFSET 0 0 4
            CHANNELS 6 Xposition Yposition Zposition Zrotation Xrotation Yrotation
            End Site
            {
              OFFSET 0 0 0
            }
          }
        }
      }
    }
  }
  JOINT RightUpLeg
  {
    OFFSET -8.00003 0 1.10273e-05
    CHANNELS 6 Xposition Yposition Zposition Zrotation Xrotation Yrotation
    JOINT RightLeg
    {
      OFFSET 4.78827e-05 -45 -1.00005
      CHANNELS 6 Xposition Yposition Zposition Zrotation Xrotation Yrotation
      JOINT RightFoot
      {
        OFFSET -3.63461e-05 -41 -1.99999
        CHANNELS 6 Xposition Yposition Zposition Zrotation Xrotation Yrotation
        JOINT RightToeBase
        {
          OFFSET 1.1951e-05 -7.5 12.4999
          CHANNELS 6 Xposition Yposition Zposition Zrotation Xrotation Yrotation
          JOINT RightFootToe
          {
            OFFSET 0 0 4
            CHANNELS 6 Xposition Yposition Zposition Zrotation Xrotation Yrotation
            End Site
            {
              OFFSET 0 0 0
            }
          }
        }
      }
    }
  }
}
MOTION
Frames:	3
Frame Time:	0.0111111
186.036 92.597 978.733 1.30811 3.13181 61.1535 0 8 0 -6.5236 3.76316 -3.23152 -1.13687e-13 8 0 1.31357 -1.06487 -0.958089 0 8 0 0.659032 -0.529684 -0.483253 0 8 0 0.658926 -0.529645 -0.483548 0 17 0 -3.7531 3.87174 15.6781 0 10.8 0 -1.59163 -4.7711 36.5311 5 17 0 -10.2955 1.66068 -3.62185 6.45 -2.84217e-14 0 -0.613466 -0.340915 0.0587393 6.45 0 1.13687e-13 40.2922 -31.9932 19.2735 0 -32.4 -2 17.4682 -31.6317 46.7987 0 -25.65 2 -1.45967 -2.23171 44.5051 -0.5 -1.5 2.65 -4.67048 -10.7859 0.399407 0 -3.8 3.7 -0.101737 13.8022 0.00302392 0 -3 2.7 -0.0283658 41.2288 0.00814219 0 -1.9 1.6 6.48175e-06 -3.37995e-06 -2.94846e-06 0 -8.3 1.9 -5.07339 -17.9298 -0.619202 0 -4.5 0 -7.95532e-05 -0.0106817 -2.19e-06 -1.13687e-13 -3.4 -1.13687e-13 1.78089e-05 -0.0102207 2.26133e-06 -0.25 -2.2 0.4 6.48175e-06 -3.37995e-06 -2.94846e-06 0 -8.3 1 -14.4483 -1.41715 0.907826 0 -4.65 0 -22.2353 0.0229086 0.0211985 5.68434e-14 -3.3 0 -17.3207 -0.0225992 0.0152867 -0.5 -2.15 -0.8 6.48175e-06 -3.37995e-06 -2.94846e-06 1.13687e-13 -7.75 -0.2 -54.8518 6.18755 7.19859 1.42109e-14 -3.8 0 -1.267 -2.97936e-05 -0.0548856 2.84217e-14 -3.4 0 0.0919042 6.63879e-06 -0.0370781 -0.75 -1.75 -1.85 6.48175e-06 -3.37995e-06 -2.94846e-06 0 -7.15 -1 -71.9362 7.72586 12.5339 0 -3 0 -0.0993317 -0.078113 -0.0687348 5.68434e-14 -2.35 0 -5.67019e-05 -0.0773283 -0.0685694 -5 17 0 -5.04573 7.06159 -1.80226 -6.45 0 1.13687e-13 -1.47919 0.303071 -0.195444 -6.45 -2.84217e-14 0 -73.5414 -64.8812 -6.94928 0 -32.4 -2 136.62 -62.8779 148.858 1.42109e-14 -25.65 2 -31.1309 8.64522 55.2695 0.5 -1.5 2.65 68.9951 -21.3038 -160.526 1.13687e-13 -3.8 3.7 0.0204243 51.4686 -0.00936501 1.13687e-13 -3 2.7 0.0269546 60.5686 -0.0382343 0 -1.9 1.6 2.12811e-06 -5.46377e-06 1.89334e-06 0 -8.3 1.9 16.0334 -11.0351 1.43089 0 -4.5 0 14.8079 -0.018311 -0.00917899 0 -3.4 0 12.3556 -0.0166186 -0.00926323 0.25 -2.2 0.4 2.12811e-06 -5.46377e-06 1.89334e-06 0 -8.3 1 23.302 -8.02483 0.668284 0 -4.65 0 35.7927 -0.0139462 0.00561036 0 -3.3 -1.13687e-13 25.5528 -0.0057544 -0.00155769 0.5 -2.15 -0.8 2.12811e-06 -5.46377e-06 1.89334e-06 0 -7.75 -0.2 44.9144 -2.99054 -1.60352 -1.13687e-13 -3.8 0 72.5392 0.00303062 -0.00536293 2.84217e-14 -3.4 0 54.9361 -0.00326629 -0.00445591 0.75 -1.75 -1.85 2.12811e-06 -5.46377e-06 1.89334e-06 0 -7.15 -1 63.8908 -6.60957 -1.28607 1.13687e-13 -3 0 57.6864 -0.0204362 -0.00373042 5.68434e-14 -2.35 0 40.1668 -0.00139529 -0.000912765 8 0 0 5.81279 -4.36252 41.0079 1.13687e-13 -45 -1 -0.889755 23.833 -11.0711 -1.13687e-13 -41 -2 -0.57281 -15.1855 -19.8401 0 -7.5 12.5 -1.86697e-07 4.42133e-05 -2.46366e-06 0 0 4 4.26906 -7.18643 15.7694 -8 0 0 -17.5978 7.33893 -15.1131 0 -45 -1 -0.048448 5.24749 -0.162215 0 -41 -2 13.011 5.33072 6.35787 0 -7.5 12.5 -2.26871e-05 -14.1686 0.00129243 -1.13687e-13 -3.55271e-15 4 -11.4531 14.6648 24.4748 
186.281 92.5956 978.67 1.38325 3.30137 61.1347 -1.13687e-13 8 0 -6.81951 3.72765 -3.22662 0 8 0 1.3399 -1.04438 -0.965318 0 8 0 0.672183 -0.519362 -0.486449 1.13687e-13 8 -1.13687e-13 0.672861 -0.519287 -0.485639 0 17 0 -3.8804 3.81761 15.6879 -1.13687e-13 10.8 0 -1.56383 -4.77226 36.5471 5 17 0 -10.413 1.43479 -3.48215 6.45 -1.42109e-14 0 -0.649215 -0.373979 0.0420086 6.45 0 0 40.4695 -32.0925 19.1178 1.13687e-13 -32.4 -2 17.6254 -31.3614 46.9183 1.13687e-13 -25.65 2 -1.41549 -2.0324 44.5727 -0.5 -1.5 2.65 -4.69807 -10.7763 0.411974 0 -3.8 3.7 -0.101731 13.6876 0.00302244 -1.13687e-13 -3 2.7 -0.0284488 41.6652 0.00819714 0 -1.9 1.6 6.48175e-06 -3.37995e-06 -2.94846e-06 0 -8.3 1.9 -5.24304 -18.1891 -0.651684 0 -4.5 0 -7.95532e-05 -0.0106817 -2.19e-06 0 -3.4 0 1.78089e-05 -0.0102207 2.26133e-06 -0.25 -2.2 0.4 6.48175e-06 -3.37995e-06 -2.94846e-06 -1.13687e-13 -8.3 1 -14.5055 -1.78448 0.861618 0 -4.65 0 -21.6625 0.0199694 0.0211985 5.68434e-14 -3.3 -1.13687e-13 -16.9538 -0.0225992 0.0152867 -0.5 -2.15 -0.8 6.48175e-06 -3.37995e-06 -2.94846e-06 -1.13687e-13 -7.75 -0.2 -54.7243 6.1211 7.14245 7.10543e-14 -3.8 1.13687e-13 -1.26457 -2.97936e-05 -0.0529754 4.26326e-14 -3.4 0 0.0943546 6.63879e-06 -0.0346619 -0.75 -1.75 -1.85 6.48175e-06 -3.37995e-06 -2.94846e-06 -1.13687e-13 -7.15 -1 -71.8244 7.73004 12.4973 5.68434e-14 -3 0 -0.0993338 -0.0798258 -0.0687348 2.84217e-14 -2.35 1.13687e-13 -5.87988e-05 -0.0790804 -0.0685694 -5 17 -1.13687e-13 -5.25074 6.9299 -1.75257 -6.45 2.84217e-14 0 -1.48651 0.310164 -0.212348 -6.45 -2.84217e-14 0 -74.9122 -65.777 -8.15882 0 -32.4 -2 136.512 -63.1154 148.765 4.26326e-14 -25.65 2 -30.9604 8.98379 55.2847 0.5 -1.5 2.65 68.5682 -21.5694 -161.314 0 -3.8 3.7 0.0204243 51.4686 -0.00936501 0 -3 2.7 0.0273348 60.8461 -0.0385659 -1.13687e-13 -1.9 1.6 2.12811e-06 -5.46377e-06 1.89334e-06 0 -8.3 1.9 16.6139 -10.78 1.4415 1.13687e-13 -4.5 1.13687e-13 14.1039 -0.018311 -0.00917899 0 -3.4 0 11.8472 -0.0166186 -0.00926323 0.25 -2.2 0.4 2.12811e-06 -5.46377e-06 1.89334e-06 0 -8.3 1 23.5747 -7.74518 0.631138 0 -4.65 -1.13687e-13 35.3558 -0.0139462 0.00561036 0 -3.3 0 25.2917 -0.0057544 -0.00155769 0.5 -2.15 -0.8 2.12811e-06 -5.46377e-06 1.89334e-06 0 -7.75 -0.2 45.1359 -2.72987 -1.71189 0 -3.8 1.13687e-13 72.4433 0.00303062 -0.00536293 2.84217e-14 -3.4 0 54.8159 -0.00326629 -0.00445591 0.75 -1.75 -1.85 2.12811e-06 -5.46377e-06 1.89334e-06 0 -7.15 -1 64.3875 -6.58337 -1.36305 0 -3 0 57.852 -0.0204362 -0.00373042 5.68434e-14 -2.35 1.13687e-13 40.3004 -0.00139529 -0.000912765 8 0 0 5.42593 -4.16815 40.98 -1.13687e-13 -45 -1 -0.882767 23.5821 -11.08 1.13687e-13 -41 -2 -0.557409 -15.2259 -19.5956 0 -7.5 12.5 -1.86697e-07 4.42133e-05 -2.46366e-06 -1.13687e-13 0 4 4.18282 -7.04298 15.7747 -8 -2.84217e-14 -1.13687e-13 -17.8518 7.57529 -15.1846 -1.13687e-13 -45 -1 -0.0449092 4.90361 -0.163659 1.13687e-13 -41 -2 13.0552 5.57786 6.27807 0 -7.5 12.5 -1.97507e-05 -14.2947 0.00129315 1.13687e-13 3.55271e-15 4 -11.4429 14.7876 24.4699 
186.527 92.5943 978.607 1.45849 3.47121 61.1169 1.13687e-13 8 1.13687e-13 -7.1154 3.69215 -3.22172 0 8 1.13687e-13 1.36624 -1.02389 -0.972546 -1.13687e-13 8 0 0.685337 -0.509039 -0.489644 -1.13687e-13 8 0 0.686726 -0.50854 -0.488085 0 17 1.13687e-13 -4.00769 3.76348 15.6977 -1.13687e-13 10.8 0 -1.53602 -4.77343 36.5631 5 17 0 -10.5294 1.20882 -3.34252 6.45 0 1.13687e-13 -0.684174 -0.406208 0.0293973 6.45 -2.84217e-14 0 40.6461 -32.1918 18.9617 1.13687e-13 -32.4 -2 17.7817 -31.0917 47.0383 0 -25.65 2 -1.37178 -1.83358 44.641 -0.5 -1.5 2.65 -4.72567 -10.7667 0.424541 0 -3.8 3.7 -0.101725 13.5731 0.00302098 -1.13687e-13 -3 2.7 -0.028533 42.1017 0.00825333 0 -1.9 1.6 6.48175e-06 -3.37995e-06 -2.94846e-06 0 -8.3 1.9 -5.41301 -18.4484 -0.684277 0 -4.5 0 -7.95532e-05 -0.0106817 -2.19e-06 0 -3.4 1.13687e-13 1.78089e-05 -0.0102207 2.26133e-06 -0.25 -2.2 0.4 6.48175e-06 -3.37995e-06 -2.94846e-06 -1.13687e-13 -8.3 1 -14.5634 -2.15182 0.815427 1.13687e-13 -4.65 0 -21.0897 0.0170301 0.0211985 0 -3.3 0 -16.587 -0.0225992 0.0152867 -0.5 -2.15 -0.8 6.48175e-06 -3.37995e-06 -2.94846e-06 0 -7.75 -0.2 -54.5969 6.05464 7.08633 4.26326e-14 -3.8 0 -1.26214 -2.97936e-05 -0.0510652 2.84217e-14 -3.4 0 0.096805 6.63879e-06 -0.0322458 -0.75 -1.75 -1.85 6.48175e-06 -3.37995e-06 -2.94846e-06 -1.13687e-13 -7.15 -1 -71.7126 7.73423 12.4608 2.84217e-14 -3 1.13687e-13 -0.0993358 -0.0815386 -0.0687348 5.68434e-14 -2.35 0 -6.08957e-05 -0.0808326 -0.0685695 -5 17 0 -5.45553 6.7982 -1.70292 -6.45 0 1.13687e-13 -1.49168 0.3169 -0.231107 -6.45 -2.84217e-14 1.13687e-13 -76.3784 -66.6616 -9.45693 5.68434e-14 -32.4 -2 136.403 -63.3529 148.67 2.84217e-14 -25.65 2 -30.7901 9.32269 55.3027 0.5 -1.5 2.65 68.1347 -21.8327 -162.104 0 -3.8 3.7 0.0204243 51.4686 -0.00936501 0 -3 2.7 0.0277216 61.1237 -0.0389042 0 -1.9 1.6 2.12811e-06 -5.46377e-06 1.89334e-06 0 -8.3 1.9 17.1943 -10.5249 1.45212 0 -4.5 1.13687e-13 13.3998 -0.018311 -0.00917899 0 -3.4 1.13687e-13 11.3389 -0.0166186 -0.00926323 0.25 -2.2 0.4 2.12811e-06 -5.46377e-06 1.89334e-06 0 -8.3 1 23.8477 -7.46553 0.594056 0 -4.65 -1.13687e-13 34.9188 -0.0139462 0.00561036 0 -3.3 0 25.0306 -0.0057544 -0.00155769 0.5 -2.15 -0.8 2.12811e-06 -5.46377e-06 1.89334e-06 0 -7.75 -0.2 45.3583 -2.46922 -1.82026 -1.13687e-13 -3.8 0 72.3474 0.00303062 -0.00536293 2.84217e-14 -3.4 -1.13687e-13 54.6957 -0.00326629 -0.00445591 0.75 -1.75 -1.85 2.12811e-06 -5.46377e-06 1.89334e-06 -1.13687e-13 -7.15 -1 64.8843 -6.55715 -1.44002 1.13687e-13 -3 0 58.0176 -0.0204362 -0.00373042 0 -2.35 1.13687e-13 40.4339 -0.00139529 -0.000912765 8 2.84217e-14 0 5.03925 -3.97364 40.9527 0 -45 -1 -0.875866 23.3312 -11.0891 -1.13687e-13 -41 -2 -0.541746 -15.266 -19.351 0 -7.5 12.5 -1.86697e-07 4.42133e-05 -2.46366e-06 1.13687e-13 4.44089e-16 4 4.09967 -6.90822 15.7767 -8 2.84217e-14 1.13687e-13 -18.1052 7.81149 -15.2565 -1.13687e-13 -45 -1 -0.0413878 4.55973 -0.165109 0 -41 -2 13.1002 5.82507 6.19833 0 -7.5 12.5 -1.68109e-05 -14.4209 0.00129388 0 3.55271e-15 4 -11.4216 14.9344 24.4402 
